# xmcd
#
# Track frame offsets: 
#        150
#        8738
#        29116
#        39212
#        45672
#        55873
#        69257
#        77626
#        90255
#        102880
#        115233
#        128360
#        133072
#        143517
#
# Disc length: 2079 seconds
#
# Revision: 0
# Processed by: cddbd v1.5.2PL0 Copyright (c) Steve Scherf et al.
# Submitted via: ExactAudioCopy v1.1
#
DISCID=a6081d0e
DTITLE=Back In Time - Big Southfork Favorites
DYEAR=2003
DGENRE=Bluegrass
TTITLE0=Bill's Breakdown
TTITLE1=Daughter Dear Daughter
TTITLE2=Bootleg John
TTITLE3=Banks of the Ohio
TTITLE4=Miller's Daughter
TTITLE5=Too Old To Die Young
TTITLE6=Fireball
TTITLE7=What I Traded For A Mansion
TTITLE8=Maggie
TTITLE9=Scotland the Brave
TTITLE10=Georgia Rose
TTITLE11=Sally Ann
TTITLE12=Traveling the Highway Home
TTITLE13=Pray For Me
EXTD=
EXTT0=
EXTT1=
EXTT2=
EXTT3=
EXTT4=
EXTT5=
EXTT6=
EXTT7=
EXTT8=
EXTT9=
EXTT10=
EXTT11=
EXTT12=
EXTT13=
PLAYORDER=
